<?xml version="1.0" encoding="UTF-8"?>
<svg id="Layer_2" data-name="Layer 2" xmlns="http://www.w3.org/2000/svg" viewBox="0 0 1027.99 261.49">
  <defs>
    <style>
      .cls-1, .cls-2 {
        fill: #3f8fcc;
      }

      .cls-2 {
        fill-rule: evenodd;
      }
    </style>
  </defs>
  <g id="Layer_1-2" data-name="Layer 1">
    <g>
      <path class="cls-2" d="m130.74,26.1c-57.79,0-104.64,46.86-104.64,104.65s46.86,104.64,104.64,104.64v-34.55c-38.71,0-70.1-31.38-70.1-70.09s31.39-70.1,70.1-70.1V26.1Zm22.94,206.76c46.76-10.47,81.71-52.2,81.71-102.11s-34.95-91.66-81.71-102.12v35.87c27.45,9.5,47.16,35.57,47.16,66.25s-19.71,56.75-47.16,66.24v35.87Z"/>
      <rect class="cls-1" x="114.62" width="16.12" height="38.08"/>
      <rect class="cls-1" x="114.62" y="223.42" width="16.12" height="38.08"/>
      <rect class="cls-1" x="58.76" y="14.97" width="32.25" height="38.07" transform="translate(-6.97 41.99) rotate(-29.99)"/>
      <rect class="cls-1" x="17.88" y="55.85" width="32.25" height="38.08" transform="translate(-47.85 66.89) rotate(-60)"/>
      <rect class="cls-1" y="114.61" width="38.08" height="32.26"/>
      <rect class="cls-1" x="14.97" y="170.46" width="38.08" height="32.26" transform="translate(-88.77 42.03) rotate(-30.01)"/>
      <rect class="cls-1" x="55.85" y="211.35" width="38.08" height="32.25" transform="translate(-159.56 178.62) rotate(-60.01)"/>
    </g>
    <g>
      <path d="m401.48,74.3c-12.83-15.08-31.29-23.64-50.65-23.64-38.5,0-67.31,30.84-67.31,68.89,0,44.58,37.15,67.76,67.54,67.76,15.08,0,35.12-6.08,50.43-22.74v13.06c-15.31,13.51-33.77,18.69-49.98,18.69-45.03,0-78.34-35.35-78.34-77.22s34.67-77.44,77.89-77.44c28.59,0,45.93,15.31,50.43,19.59v13.06Z"/>
      <path d="m515.62,148.14c0,27.24-20.94,48.18-48.18,48.18s-48.18-20.94-48.18-48.18,20.94-48.18,48.18-48.18,48.18,20.94,48.18,48.18Zm-9.46,0c0-22.29-16.66-39.62-38.72-39.62s-38.72,17.33-38.72,39.62,16.66,39.62,38.72,39.62,38.72-17.33,38.72-39.62Z"/>
      <path d="m626.83,101.99v89.15c0,34.67-17.33,54.48-46.15,54.48-23.86,0-43.9-13.96-45.03-39.4h9.46c1.58,19.14,15.98,30.84,35.57,30.84,36.25,0,37.15-36.47,37.15-45.93v-13.06c-9.23,12.83-23.19,18.24-36.25,18.24-22.51,0-45.25-16.43-45.25-48.4,0-26.56,17.56-47.95,46.38-47.95,15.08,0,27.24,6.75,35.12,18.01v-15.98h9Zm-81.05,46.38c0,22.06,13.96,39.4,35.57,39.4,22.74,0,36.92-17.79,36.92-40.3s-13.96-38.95-36.47-38.95-36.02,18.69-36.02,39.85Z"/>
      <path d="m669.15,99.07l24.54,54.26,26.56-62.36,26.57,62.36,24.54-54.26h24.76l-49.3,101.53-26.57-60.56-26.56,60.56-49.3-101.53h24.76Z"/>
      <path d="m822.46,45.71c8.1,0,14.18,6.08,14.18,14.18s-6.08,14.18-14.18,14.18-14.18-6.08-14.18-14.18,6.08-14.18,14.18-14.18Zm11.03,53.36v94.78h-22.06v-94.78h22.06Z"/>
      <path d="m902.82,124.05c-2.25-3.6-6.53-8.1-13.51-8.1-3.15,0-5.4,1.13-6.75,2.48-1.13,1.13-2.03,2.93-2.03,4.95,0,2.48,1.13,4.05,3.15,5.4,1.35.9,2.7,1.35,7.43,3.83l11.26,5.63c4.95,2.48,9.68,4.95,13.28,8.78,5.18,5.18,6.98,11.03,6.98,17.56,0,8.55-3.15,15.98-8.33,21.61-7.43,8.1-16.66,10.58-26.57,10.58-6.08,0-13.73-.9-20.49-6.08-5.4-4.05-9.91-10.58-12.16-17.33l18.01-8.56c1.12,3.15,3.15,7.2,5.18,9.01,1.35,1.35,4.5,3.6,9.68,3.6,3.38,0,6.98-1.12,9-3.15,1.8-1.8,3.15-4.73,3.15-7.43s-.9-4.95-2.93-7.2c-2.7-2.7-5.85-4.28-9.46-5.85l-8.1-3.83c-4.28-2.03-9.46-4.5-13.06-8.11-4.95-4.73-6.75-9.91-6.75-15.98,0-7.65,2.93-15.08,7.88-20.26,4.28-4.5,11.48-9.01,23.19-9.01,6.75,0,12.16,1.35,17.56,4.95,3.15,2.03,7.43,5.63,10.81,11.71l-16.43,10.81Z"/>
      <path d="m1027.32,172.23c-4.05,7.2-9.91,13.51-15.98,17.33-7.65,4.95-17.78,7.2-27.92,7.2-12.61,0-22.96-3.15-31.97-12.16s-13.96-22.06-13.96-36.25,5.18-28.82,15.08-38.95c7.88-7.88,18.24-12.83,31.74-12.83,15.08,0,24.76,6.53,30.39,12.38,12.16,12.61,13.28,30.17,13.28,40.07v2.7h-67.99c.45,6.75,3.38,14.41,8.1,19.14,5.18,5.18,11.48,6.08,16.88,6.08,6.08,0,10.58-1.35,15.08-4.73,3.83-2.93,6.75-6.75,8.78-10.36l18.46,10.36Zm-21.84-38.5c-.9-5.18-3.38-9.68-6.75-12.83-2.93-2.7-7.65-5.4-14.86-5.4-7.65,0-12.61,3.15-15.53,6.08-3.15,2.93-5.63,7.43-6.75,12.16h43.9Z"/>
    </g>
  </g>
</svg>